Coordinates
version=1
nRows=5
nColumns=63
inDegrees=yes

Units are S.I. units (second, meters, Newtons, ...)
If the header above contains a line with 'inDegrees', this indicates whether rotational values are in degrees (yes) or radians (no).

endheader
time	pelvis_tilt	pelvis_list	pelvis_rotation	pelvis_tx	pelvis_ty	pelvis_tz	hip_flexion_r	hip_adduction_r	hip_rotation_r	knee_angle_r	knee_angle_r_beta	ankle_angle_r	subtalar_angle_r	mtp_angle_r	hip_flexion_l	hip_adduction_l	hip_rotation_l	knee_angle_l	knee_angle_l_beta	ankle_angle_l	subtalar_angle_l	mtp_angle_l	L5_S1_Flex_Ext	L5_S1_Lat_Bending	L5_S1_axial_rotation	L4_L5_Flex_Ext	L4_L5_Lat_Bending	L4_L5_axial_rotation	L3_L4_Flex_Ext	L3_L4_Lat_Bending	L3_L4_axial_rotation	L2_L3_Flex_Ext	L2_L3_Lat_Bending	L2_L3_axial_rotation	L1_L2_Flex_Ext	L1_L2_Lat_Bending	L1_L2_axial_rotation	L1_T12_Flex_Ext	L1_T12_Lat_Bending	L1_T12_axial_rotation	Abs_r3	Abs_r2	Abs_r1	Abs_t1	Abs_t2	neck_flexion	neck_bending	neck_rotation	arm_flex_r	arm_add_r	arm_rot_r	elbow_flex_r	pro_sup_r	wrist_flex_r	wrist_dev_r	arm_flex_l	arm_add_l	arm_rot_l	elbow_flex_l	pro_sup_l	wrist_flex_l	wrist_dev_l
      2.23333333	     -6.42729724	    -15.22553464	     93.80025480	      0.25125813	      0.69963912	      0.82161459	     26.21737434	    -10.41547631	    -12.52029815	     31.42432380	      0.54845792	     38.03349363	     14.80307142	      0.00000000	     26.77620878	     -2.55034104	    -20.67342097	     35.26603836	      0.61550848	     33.48271776	     13.08493799	      0.00000000	     -0.01638175	      1.16054375	     -0.02745799	     -0.03042255	      1.54352319	     -0.02917411	     -0.02691358	      2.82174608	     -0.02917411	     -0.01872270	      2.82174608	     -0.02402574	     -0.01521209	      2.36658082	     -0.02230961	     -0.00936053	      1.79768227	     -0.02059349	     -0.11701320	     13.12830305	     -0.15271309	      0.00000000	      0.00000000	     27.82310651	      0.24699331	      2.01720954	     20.09329172	    -19.62755399	     49.69649259	     28.35195845	     88.45416857	    -19.68445019	     -3.50717231	    -17.01234234	    -20.08687288	     11.28702351	     70.95210383	     84.15444355	     -9.13708035	      0.57820541
      2.25000000	     -6.93896068	    -14.43015124	     93.63835043	      0.25558432	      0.70677572	      0.82042544	     24.61867041	    -10.29718566	    -12.06503176	     29.91481799	      0.52211207	     36.96911518	     14.29358394	      0.00000000	     24.58425056	     -1.93635066	    -21.20536697	     32.83742528	      0.57312119	     32.51590871	     13.87339341	      0.00000000	      0.00461478	      0.98310452	     -0.22655776	      0.00857011	      1.30752902	     -0.24071762	      0.00758162	      2.39032034	     -0.24071762	      0.00527423	      2.39032034	     -0.19823804	      0.00428528	      2.00474675	     -0.18407818	      0.00263689	      1.52282891	     -0.16991832	      0.03296291	     11.12107500	     -1.26004628	      0.00000000	      0.00000000	     27.70141126	      2.23342472	      2.87692794	     21.17177960	    -18.18722039	     57.24159581	     27.68049691	     88.66214601	    -22.12217661	     -4.68505251	    -17.24622869	    -20.75847232	     10.93152659	     72.02509638	     85.52909371	    -10.14605647	      0.04617204
      2.26666667	     -7.26581223	    -13.57276046	     93.73555295	      0.25950676	      0.71346173	      0.81935992	     22.92178625	    -10.10980999	    -11.92713496	     28.43796670	      0.49633615	     36.12789162	     13.91817457	      0.00000000	     22.40764721	     -1.37467035	    -21.36409421	     30.42759875	      0.53106178	     31.75139296	     14.72209404	      0.00000000	      0.01840369	      0.83171768	     -0.35002122	      0.03417750	      1.10618451	     -0.37189754	      0.03023543	      2.02223837	     -0.37189754	      0.02103358	      2.02223837	     -0.30626856	      0.01708967	      1.69603869	     -0.28439224	      0.01051587	      1.28833069	     -0.26251591	      0.13145574	      9.40855674	     -1.94671300	      0.00000000	      0.00000000	     27.54074965	      3.61468223	      2.87529060	     21.51078735	    -16.96324041	     62.12612657	     27.58708959	     88.85479974	    -23.72536908	     -5.67203142	    -16.78857406	    -21.68659214	     11.89628379	     72.87635919	     87.39869456	    -12.09811487	     -0.51258537
      2.28333333	     -7.33939821	    -12.67444870	     94.26764269	      0.26278634	      0.71975676	      0.81862514	     21.06640280	     -9.80110238	    -12.25252346	     26.87960317	      0.46913758	     35.46592616	     13.74125496	      0.00000000	     20.35723326	     -0.92492048	    -20.88858721	     28.13962865	      0.49112917	     31.08791250	     15.48265262	      0.00000000	      0.01715332	      0.71563221	     -0.45580100	      0.03185543	      0.95179084	     -0.48428857	      0.02818119	      1.73998816	     -0.48428857	      0.01960453	      1.73998816	     -0.39882588	      0.01592857	      1.45931720	     -0.37033832	      0.00980141	      1.10851429	     -0.34185075	      0.12252444	      8.09537468	     -2.53502844	      0.00000000	      0.00000000	     27.35297571	      4.12990138	      2.07483122	     21.11074921	    -16.15345016	     63.68507460	     28.52678852	     88.95735116	    -24.09379142	     -6.22321970	    -15.62646679	    -22.71869519	     13.94507597	     73.33412467	     88.42915572	    -13.98292817	     -1.13967333
      2.30000000	     -7.21120787	    -11.80958562	     95.09364415	      0.26525657	      0.72551748	      0.81782251	     19.14428424	     -9.39941491	    -13.08013114	     25.26507768	      0.44095879	     34.92661331	     13.88731603	      0.00000000	     18.45465194	     -0.59453012	    -19.91093426	     25.97269353	      0.45330902	     30.41280248	     15.99125241	      0.00000000	      0.01632688	      0.62975621	     -0.52304181	      0.03032064	      0.83757577	     -0.55573192	      0.02682343	      1.53118926	     -0.55573192	      0.01865999	      1.53118926	     -0.45766158	      0.01516114	      1.28419887	     -0.42497147	      0.00932918	      0.97549238	     -0.39228135	      0.11662125	      7.12392825	     -2.90900161	      0.00000000	      0.00000000	     27.24169720	      3.68224294	      0.28819280	     19.82003996	    -15.85855534	     61.72197384	     30.65233517	     89.03181376	    -23.18569431	     -6.42162386	    -13.75957583	    -23.71924950	     17.24480514	     73.26700100	     88.92375975	    -16.73903567	     -1.82967819
